<svg xmlns="http://www.w3.org/2000/svg" width="192" height="64" viewBox="-4 0 192 64" role="img" aria-labelledby="title"><title id="title">SKRUU. VARISPEED PITCH. PITCHES LOVE ME. INDEPENDENT PITCH &amp; TIME</title><g fill="#f5f2ea"><g transform="translate(45.88085988085988 16.893680393680395) scale(0.02382802382802383 -0.02382802382802383)"><path d="M667 488V476H460V480Q460 510 438.0 530.0Q416 550 371 550Q327 550 303.5 537.0Q280 524 280 505Q280 478 312.0 465.0Q344 452 415 438Q498 421 551.5 402.5Q605 384 645.0 342.0Q685 300 686 228Q686 106 603.5 47.0Q521 -12 383 -12Q222 -12 132.5 42.0Q43 96 43 233H252Q252 181 279.0 163.5Q306 146 363 146Q405 146 432.5 155.0Q460 164 460 192Q460 217 429.5 229.5Q399 242 330 256Q246 274 191.0 293.5Q136 313 95.0 358.0Q54 403 54 480Q54 593 141.5 646.5Q229 700 363 700Q495 700 580.0 646.5Q665 593 667 488ZM1242.0 688H1516.0L1269.0 405L1521.0 0H1260.0L1117.0 252L997.0 154V0H776.0V688H997.0V394ZM2109.0 288 2262.0 0H2014.0L1892.0 251H1810.0V0H1589.0V688H2010.0Q2084.0 688 2136.5 659.5Q2189.0 631 2215.5 582.5Q2242.0 534 2242.0 477Q2242.0 414 2208.0 363.0Q2174.0 312 2109.0 288ZM1955.0 531H1810.0V404H1955.0Q1981.0 404 1999.0 422.5Q2017.0 441 2017.0 468Q2017.0 495 1999.0 513.0Q1981.0 531 1955.0 531ZM2673.0 -12Q2509.0 -12 2419.5 62.0Q2330.0 136 2330.0 277V688H2551.0V280Q2551.0 222 2582.0 187.5Q2613.0 153 2672.0 153Q2731.0 153 2762.5 188.0Q2794.0 223 2794.0 280V688H3015.0V277Q3015.0 136 2926.0 62.0Q2837.0 -12 2673.0 -12ZM3486.0 -12Q3322.0 -12 3232.5 62.0Q3143.0 136 3143.0 277V688H3364.0V280Q3364.0 222 3395.0 187.5Q3426.0 153 3485.0 153Q3544.0 153 3575.5 188.0Q3607.0 223 3607.0 280V688H3828.0V277Q3828.0 136 3739.0 62.0Q3650.0 -12 3486.0 -12Z" /></g><g data-baseline="34" transform="translate(-0.1250000 34) scale(0.013879518072 -0.013879518072)"><path d="M265.8267822265625 0.0 10 686H116.45550537109375L291.5252685546875 201.5140380859375Q297.1900634765625 187.76824951171875 303.0629577636719 170.1900634765625Q308.93585205078125 152.61187744140625 314.8087463378906 136.11749267578125Q320.681640625 119.62310791015625 324.93023681640625 106.8773193359375H330.76263427734375Q335.42742919921875 119.039306640625 340.8003234863281 135.24179077148438Q346.1732177734375 151.44427490234375 352.25421142578125 168.73056030273438Q358.335205078125 186.016845703125 363.58380126953125 200.93023681640625L536.8211669921875 686.0H639.7738647460938L383.94708251953125 0.0ZM925.4503784179688 0.0 1196.1961669921875 686.0H1324.403076171875L1595.732666015625 0.0H1489.2771606445312L1423.8721923828125 167.642333984375H1091.5594482421875L1026.5706787109375 0.0ZM1123.8192749023438 251.8380126953125H1391.028564453125L1309.1264038085938 464.05853271484375Q1305.5426025390625 473.22613525390625 1299.8345031738281 488.9342346191406Q1294.1264038085938 504.642333984375 1287.2940063476562 524.1828308105469Q1280.4616088867188 543.7233276367188 1273.4211120605469 563.971923828125Q1266.380615234375 584.2205200195312 1260.5482177734375 600.8853149414062H1254.2996215820312Q1247.8834228515625 581.301513671875 1238.7591247558594 555.301513671875Q1229.6348266601562 529.301513671875 1220.8024291992188 504.8448181152344Q1211.9700317382812 480.38812255859375 1205.721435546875 464.05853271484375ZM1984.8951416015625 0.0V686.0H2345.4789428710938Q2416.4845581054688 686.0 2463.1549682617188 660.4161987304688Q2509.8253784179688 634.8323974609375 2533.1605834960938 589.32958984375Q2556.4957885742188 543.8267822265625 2556.4957885742188 483.8211669921875Q2556.4957885742188 413.4915771484375 2524.414794921875 362.40777587890625Q2492.3338012695312 311.323974609375 2436.414794921875 288.653564453125L2580.4957885742188 0.0H2472.6240844726562L2339.9649047851562 271.64794921875H2083.2640380859375V0.0ZM2083.2640380859375 355.25982666015625H2336.3113403320312Q2393.38671875 355.25982666015625 2425.1730041503906 389.67041015625Q2456.9592895507812 424.08099365234375 2456.9592895507812 484.23736572265625Q2456.9592895507812 521.3993530273438 2443.2944946289062 547.2289428710938Q2429.6296997070312 573.0585327148438 2402.8839111328125 587.1395263671875Q2376.1381225585938 601.2205200195312 2336.3113403320312 601.2205200195312H2083.2640380859375ZM3008.2645263671875 0.0V686.0H3106.6334228515625V0.0ZM3827.3043212890625 -12.0Q3771.13671875 -12.0 3719.3448181152344 -0.956695556640625Q3667.5529174804688 10.08660888671875 3627.5529174804688 34.92181396484375Q3587.5529174804688 59.75701904296875 3564.3448181152344 98.8408203125Q3541.13671875 137.92462158203125 3541.13671875 194.42181396484375Q3541.13671875 200.005615234375 3541.4286193847656 204.96511840820312Q3541.7205200195312 209.92462158203125 3542.13671875 214.58941650390625H3641.505615234375Q3641.0894165039062 211.3408203125 3640.5894165039062 205.0084228515625Q3640.0894165039062 198.676025390625 3640.0894165039062 193.8436279296875Q3640.0894165039062 154.1844482421875 3663.6676025390625 126.93865966796875Q3687.2457885742188 99.69287109375 3729.2806701660156 85.94427490234375Q3771.3155517578125 72.1956787109375 3824.8937377929688 72.1956787109375Q3849.5697631835938 72.1956787109375 3875.694061279297 75.36328125Q3901.818359375 78.5308837890625 3925.7289428710938 86.0308837890625Q3949.6395263671875 93.5308837890625 3968.506805419922 105.90377807617188Q3987.3740844726562 118.27667236328125 3998.28466796875 136.47915649414062Q4009.1952514648438 154.681640625 4009.1952514648438 180.08660888671875Q4009.1952514648438 213.664794921875 3990.154754638672 235.78628540039062Q3971.1142578125 257.90777587890625 3939.1575622558594 272.57257080078125Q3907.2008666992188 287.23736572265625 3866.8279724121094 298.56976318359375Q3826.455078125 309.90216064453125 3783.665985107422 320.90216064453125Q3740.8768920898438 331.90216064453125 3700.5039978027344 346.56976318359375Q3660.131103515625 361.23736572265625 3628.1744079589844 382.40496826171875Q3596.2177124023438 403.57257080078125 3577.177215576172 436.0320739746094Q3558.13671875 468.4915771484375 3558.13671875 514.6591796875Q3558.13671875 557.664794921875 3575.931427001953 592.0Q3593.7261352539062 626.335205078125 3628.5208435058594 649.835205078125Q3663.3155517578125 673.335205078125 3713.9398498535156 685.6676025390625Q3764.5641479492188 698.0 3830.2233276367188 698.0Q3883.9747314453125 698.0 3930.8099365234375 686.7080993652344Q3977.6451416015625 675.4161987304688 4013.3965454101562 651.7485961914062Q4049.14794921875 628.0809936523438 4069.3155517578125 591.6214904785156Q4089.483154296875 555.1619873046875 4089.483154296875 504.41058349609375V492.41058349609375H3991.6980590820312V506.98876953125Q3991.6980590820312 540.5669555664062 3971.0765686035156 564.1046447753906Q3950.455078125 587.642333984375 3914.584991455078 600.7233276367188Q3878.7149047851562 613.8043212890625 3832.5529174804688 613.8043212890625Q3773.818359375 613.8043212890625 3734.9510803222656 602.1828308105469Q3696.0838012695312 590.5613403320312 3676.794708251953 569.8993530273438Q3657.505615234375 549.2373657226562 3657.505615234375 521.9077758789062Q3657.505615234375 491.4971923828125 3676.546112060547 471.1676025390625Q3695.5866088867188 450.8380126953125 3727.7514038085938 437.1732177734375Q3759.9161987304688 423.5084228515625 3800.289093017578 412.676025390625Q3840.6619873046875 401.8436279296875 3883.2429809570312 390.5517272949219Q3925.823974609375 379.25982666015625 3966.1968688964844 364.676025390625Q4006.5697631835938 350.09222412109375 4038.7345581054688 328.2165222167969Q4070.8993530273438 306.3408203125 4089.9398498535156 273.75701904296875Q4108.9803466796875 241.1732177734375 4108.9803466796875 194.75701904296875Q4108.9803466796875 121.5028076171875 4072.7289428710938 75.75140380859375Q4036.4775390625 30 3973.0585327148438 9.0Q3909.6395263671875 -12.0 3827.3043212890625 -12.0ZM4544.0032958984375 0.0V686.0H4883.425109863281Q4955.263122558594 686.0 5002.265930175781 659.4161987304688Q5049.268737792969 632.8323974609375 5072.812042236328 585.7052917480469Q5096.3553466796875 538.5781860351562 5096.3553466796875 475.98876953125Q5096.3553466796875 412.318359375 5070.3553466796875 363.7750549316406Q5044.3553466796875 315.23175048828125 4996.393035888672 288.14794921875Q4948.430725097656 261.06414794921875 4881.835693359375 261.06414794921875H4642.3721923828125V0.0ZM4642.3721923828125 345.8436279296875H4876.1708984375Q4931.581481933594 345.8436279296875 4964.283966064453 380.3380126953125Q4996.9864501953125 414.8323974609375 4996.9864501953125 475.1563720703125Q4996.9864501953125 515.1507568359375 4983.529754638672 543.1046447753906Q4970.073059082031 571.0585327148438 4943.3272705078125 586.1395263671875Q4916.581481933594 601.2205200195312 4876.1708984375 601.2205200195312H4642.3721923828125ZM5506.3726806640625 0.0V686.0H6035.129699707031V601.2205200195312H5604.7415771484375V393.5140380859375H5991.129699707031V308.73455810546875H5604.7415771484375V84.77947998046875H6041.129699707031V0.0ZM6479.7420654296875 0.0V686.0H7008.499084472656V601.2205200195312H6578.1109619140625V393.5140380859375H6964.499084472656V308.73455810546875H6578.1109619140625V84.77947998046875H7014.499084472656V0.0ZM7453.1114501953125 0.0V686.0H7711.047302246094Q7818.376892089844 686.0 7894.041687011719 649.8323974609375Q7969.706481933594 613.664794921875 8010.1226806640625 538.164794921875Q8050.538879394531 462.664794921875 8050.538879394531 343.0Q8050.538879394531 224.75140380859375 8010.1226806640625 148.75140380859375Q7969.706481933594 72.75140380859375 7894.041687011719 36.375701904296875Q7818.376892089844 0.0 7711.047302246094 0.0ZM7551.4803466796875 84.77947998046875H7709.382507324219Q7765.290283203125 84.77947998046875 7809.573760986328 98.98757934570312Q7853.857238769531 113.1956787109375 7884.892120361328 142.98477172851562Q7915.927001953125 172.77386474609375 7932.256591796875 219.6844482421875Q7948.586181640625 266.59503173828125 7948.586181640625 331.58380126953125V352.1676025390625Q7948.586181640625 418.98876953125 7932.256591796875 466.1074523925781Q7915.927001953125 513.2261352539062 7885.1002197265625 543.0152282714844Q7854.2734375 572.8043212890625 7809.989959716797 587.0124206542969Q7765.706481933594 601.2205200195312 7709.382507324219 601.2205200195312H7551.4803466796875ZM9256.482666015625 0.0V686.0H9595.904479980469Q9667.742492675781 686.0 9714.745300292969 659.4161987304688Q9761.748107910156 632.8323974609375 9785.291412353516 585.7052917480469Q9808.834716796875 538.5781860351562 9808.834716796875 475.98876953125Q9808.834716796875 412.318359375 9782.834716796875 363.7750549316406Q9756.834716796875 315.23175048828125 9708.87240600586 288.14794921875Q9660.910095214844 261.06414794921875 9594.315063476562 261.06414794921875H9354.8515625V0.0ZM9354.8515625 345.8436279296875H9588.650268554688Q9644.060852050781 345.8436279296875 9676.76333618164 380.3380126953125Q9709.4658203125 414.8323974609375 9709.4658203125 475.1563720703125Q9709.4658203125 515.1507568359375 9696.00912475586 543.1046447753906Q9682.552429199219 571.0585327148438 9655.806640625 586.1395263671875Q9629.060852050781 601.2205200195312 9588.650268554688 601.2205200195312H9354.8515625ZM10218.85205078125 0.0V686.0H10317.220947265625V0.0ZM10953.221435546875 0.0V600.63671875H10719.654479980469V686.0H11286.989685058594V600.63671875H11051.59033203125V0.0ZM11960.266845703125 -12.0Q11855.266845703125 -12.0 11782.015441894531 26.24859619140625Q11708.764038085938 64.4971923828125 11670.512634277344 143.20529174804688Q11632.26123046875 221.91339111328125 11632.26123046875 343.0Q11632.26123046875 521.9190063476562 11719.012634277344 609.9595031738281Q11805.764038085938 698.0 11961.099243164062 698.0Q12048.596435546875 698.0 12116.680236816406 669.4161987304688Q12184.764038085938 640.8323974609375 12223.807342529297 583.3728942871094Q12262.850646972656 525.9133911132812 12262.850646972656 437.994384765625H12162.730346679688Q12162.730346679688 497.1507568359375 12137.900756835938 536.0208435058594Q12113.071166992188 574.8909301757812 12067.787689208984 594.3476257324219Q12022.504211425781 613.8043212890625 11961.434448242188 613.8043212890625Q11889.688659667969 613.8043212890625 11838.445678710938 585.8476257324219Q11787.202697753906 557.8909301757812 11760.708312988281 500.06414794921875Q11734.213928222656 442.23736572265625 11734.213928222656 351.5028076171875V329.91900634765625Q11734.213928222656 240.681640625 11760.708312988281 183.687255859375Q11787.202697753906 126.69287109375 11838.153778076172 99.44427490234375Q11889.104858398438 72.1956787109375 11961.850646972656 72.1956787109375Q12024.255615234375 72.1956787109375 12070.12289428711 91.3604736328125Q12115.990173339844 110.5252685546875 12141.027862548828 149.39535522460938Q12166.065551757812 188.26544189453125 12166.065551757812 247.42181396484375H12262.850646972656Q12262.850646972656 158.67041015625 12223.266845703125 101.21090698242188Q12183.683044433594 43.75140380859375 12115.391143798828 15.875701904296875Q12047.099243164062 -12.0 11960.266845703125 -12.0ZM12691.960205078125 0.0V686.0H12790.3291015625V393.26544189453125H13158.608154296875V686.0H13256.97705078125V0.0H13158.608154296875V307.90216064453125H12790.3291015625V0.0Z" /></g><g data-baseline="47" transform="translate(-1.0000000 47) scale(0.013879518072 -0.013879518072)"><path d="M75.7825927734375 0.0V686.2174072265625H426.522216796875Q501.32647705078125 686.2174072265625 550.8264770507812 658.9456481933594Q600.3264770507812 631.6738891601562 625.652587890625 582.3477783203125Q650.9786987304688 533.0216674804688 650.9786987304688 464.9129638671875Q650.9786987304688 397.4781494140625 624.7069396972656 347.2063903808594Q598.4351806640625 296.93463134765625 547.152587890625 269.2715759277344Q495.8699951171875 241.6085205078125 420.28314208984375 241.6085205078125H215.67462158203125V0.0ZM215.67462158203125 358.043701171875H408.67388916015625Q457.0433349609375 358.043701171875 483.456298828125 386.2936096191406Q509.8692626953125 414.54351806640625 509.8692626953125 464.695556640625Q509.8692626953125 498.49981689453125 498.3584289550781 521.5758361816406Q486.84759521484375 544.65185546875 464.6628723144531 557.1083374023438Q442.4781494140625 569.5648193359375 408.67388916015625 569.5648193359375H215.67462158203125ZM1028.2535400390625 0.0V686.2174072265625H1168.1455688476562V0.0ZM1764.4854125976562 0.0V567.2603759765625H1544.7244873046875V686.2174072265625H2124.9209594726562V567.2603759765625H1904.37744140625V0.0ZM2781.021728515625 -12.0Q2674.71728515625 -12.0 2599.6737670898438 25.32611083984375Q2524.6302490234375 62.6522216796875 2485.0215454101562 141.26092529296875Q2445.412841796875 219.86962890625 2445.412841796875 343.10870361328125Q2445.412841796875 523.565185546875 2533.684600830078 610.8912963867188Q2621.9563598632812 698.2174072265625 2781.021728515625 698.2174072265625Q2867.6522827148438 698.2174072265625 2936.8045043945312 668.7282409667969Q3005.9567260742188 639.2390747070312 3046.5110778808594 579.9237976074219Q3087.0654296875 520.6085205078125 3087.0654296875 429.956298828125H2945.5865478515625Q2945.5865478515625 478.8692626953125 2924.901824951172 512.7713928222656Q2904.2171020507812 546.6735229492188 2867.4671936035156 564.4561157226562Q2830.71728515625 582.2387084960938 2782.6956176757812 582.2387084960938Q2716.9783935546875 582.2387084960938 2673.772003173828 556.4452819824219Q2630.5656127929688 530.65185546875 2609.9895935058594 480.39111328125Q2589.41357421875 430.13037109375 2589.41357421875 356.3914794921875V329.825927734375Q2589.41357421875 255.19573974609375 2610.0439453125 204.93499755859375Q2630.67431640625 154.67425537109375 2673.3807067871094 129.32647705078125Q2716.0870971679688 103.97869873046875 2782.4782104492188 103.97869873046875Q2833.6085815429688 103.97869873046875 2871.4671936035156 121.20693969726562Q2909.3258056640625 138.4351806640625 2930.0648803710938 172.282958984375Q2950.803955078125 206.1307373046875 2950.803955078125 254.93499755859375H3087.0654296875Q3087.0654296875 164.50018310546875 3047.1741333007812 105.29360961914062Q3007.2828369140625 46.0870361328125 2938.1849670410156 17.04351806640625Q2869.0870971679688 -12.0 2781.021728515625 -12.0ZM3479.6663818359375 0.0V686.2174072265625H3619.5584106445312V410.2611083984375H3931.188232421875V686.2174072265625H4071.0802612304688V0.0H3931.188232421875V291.3040771484375H3619.5584106445312V0.0ZM4499.463439941406 0.0V686.2174072265625H5040.985656738281V569.347412109375H4639.35546875V408.3914794921875H4995.898620605469V292.28240966796875H4639.35546875V116.8699951171875H5047.0943603515625V0.0ZM5714.369567871094 -12.0Q5655.847717285156 -12.0 5602.815032958984 0.2825927734375Q5549.7823486328125 12.565185546875 5509.075775146484 38.95648193359375Q5468.369201660156 65.3477783203125 5444.988739013672 105.5Q5421.6082763671875 145.6522216796875 5421.6082763671875 201.28277587890625Q5421.6082763671875 206.84796142578125 5422.053924560547 212.57620239257812Q5422.499572753906 218.304443359375 5422.6082763671875 221.41314697265625H5562.087158203125Q5561.978454589844 219.19573974609375 5561.532806396484 213.91314697265625Q5561.087158203125 208.63055419921875 5561.087158203125 204.7392578125Q5561.087158203125 172.06536865234375 5579.543640136719 149.38064575195312Q5598.0001220703125 126.6959228515625 5632.858734130859 114.95684814453125Q5667.717346191406 103.2177734375 5714.869384765625 103.2177734375Q5745.586608886719 103.2177734375 5769.782165527344 106.83731079101562Q5793.977722167969 110.45684814453125 5811.825500488281 117.413330078125Q5829.673278808594 124.36981201171875 5841.510223388672 134.27194213867188Q5853.34716796875 144.174072265625 5858.901519775391 156.68490600585938Q5864.455871582031 169.19573974609375 5864.455871582031 183.97833251953125Q5864.455871582031 211.89129638671875 5846.5645751953125 230.02166748046875Q5828.673278808594 248.15203857421875 5798.336334228516 260.6085205078125Q5767.9993896484375 273.06500244140625 5729.771148681641 283.1845397949219Q5691.542907714844 293.3040771484375 5651.205963134766 304.1410217285156Q5610.8690185546875 314.97796630859375 5572.640777587891 330.4236145019531Q5534.412536621094 345.8692626953125 5504.075592041016 368.0323181152344Q5473.7386474609375 390.19537353515625 5455.847351074219 423.91278076171875Q5437.9560546875 457.63018798828125 5437.9560546875 504.956298828125Q5437.9560546875 554.2607421875 5458.945220947266 590.9129638671875Q5479.934387207031 627.565185546875 5518.086608886719 651.3369445800781Q5556.238830566406 675.1087036132812 5606.836700439453 686.6630554199219Q5657.4345703125 698.2174072265625 5716.6519775390625 698.2174072265625Q5772.412902832031 698.2174072265625 5821.565124511719 686.6087036132812Q5870.717346191406 675.0 5908.2608642578125 650.3369445800781Q5945.804382324219 625.6738891601562 5967.1304931640625 587.9021301269531Q5988.456604003906 550.13037109375 5988.5653076171875 497.80426025390625V485.80426025390625H5851.08642578125V495.15203857421875Q5851.08642578125 522.956298828125 5834.510406494141 542.521484375Q5817.934387207031 562.086669921875 5787.738830566406 572.9779663085938Q5757.543273925781 583.8692626953125 5716.630310058594 583.8692626953125Q5673.2608642578125 583.8692626953125 5642.510955810547 575.6410217285156Q5611.761047363281 567.4127807617188 5595.52197265625 551.5650024414062Q5579.282897949219 535.7172241210938 5579.282897949219 513.0216674804688Q5579.282897949219 488.67388916015625 5597.1741943359375 472.2174072265625Q5615.065490722656 455.76092529296875 5645.402435302734 444.19573974609375Q5675.7393798828125 432.63055419921875 5713.967620849609 422.9566650390625Q5752.195861816406 413.28277587890625 5792.532806396484 402.10888671875Q5832.8697509765625 390.93499755859375 5871.097991943359 376.043701171875Q5909.326232910156 361.15240478515625 5939.663177490234 338.65240478515625Q5970.0001220703125 316.15240478515625 5987.891418457031 283.15240478515625Q6005.78271484375 250.15240478515625 6005.78271484375 203.93499755859375Q6005.78271484375 126.06536865234375 5968.0653076171875 78.41314697265625Q5930.347900390625 30.76092529296875 5864.521789550781 9.380462646484375Q5798.6956787109375 -12.0 5714.369567871094 -12.0ZM7125.3740234375 0.0V686.2174072265625H7265.266052246094V119.84832763671875H7610.244384765625V0.0ZM8270.779968261719 -12.0Q8162.692932128906 -12.0 8084.1494140625 26.663055419921875Q8005.605895996094 65.32611083984375 7963.834136962891 144.38046264648438Q7922.0623779296875 223.434814453125 7922.0623779296875 343.10870361328125Q7922.0623779296875 463.7825927734375 7963.834136962891 542.3369445800781Q8005.605895996094 620.8912963867188 8084.1494140625 659.5543518066406Q8162.692932128906 698.2174072265625 8270.779968261719 698.2174072265625Q8379.867004394531 698.2174072265625 8457.964874267578 659.5543518066406Q8536.062744140625 620.8912963867188 8577.834503173828 542.3369445800781Q8619.606262207031 463.7825927734375 8619.606262207031 343.10870361328125Q8619.606262207031 223.434814453125 8577.834503173828 144.38046264648438Q8536.062744140625 65.32611083984375 8457.964874267578 26.663055419921875Q8379.867004394531 -12.0 8270.779968261719 -12.0ZM8270.779968261719 103.97869873046875Q8321.040710449219 103.97869873046875 8359.236267089844 118.59823608398438Q8397.431823730469 133.2177734375 8423.507843017578 161.79379272460938Q8449.583862304688 190.36981201171875 8463.040344238281 232.34796142578125Q8476.496826171875 274.32611083984375 8476.496826171875 328.93463134765625V355.50018310546875Q8476.496826171875 411.0 8463.040344238281 453.4237976074219Q8449.583862304688 495.84759521484375 8423.507843017578 524.4236145019531Q8397.431823730469 552.9996337890625 8359.236267089844 567.6191711425781Q8321.040710449219 582.2387084960938 8270.779968261719 582.2387084960938Q8220.519226074219 582.2387084960938 8182.323669433594 567.6191711425781Q8144.128112792969 552.9996337890625 8118.1064453125 524.4236145019531Q8092.084777832031 495.84759521484375 8079.073944091797 453.4237976074219Q8066.0631103515625 411.0 8066.0631103515625 355.50018310546875V328.93463134765625Q8066.0631103515625 274.32611083984375 8079.073944091797 232.34796142578125Q8092.084777832031 190.36981201171875 8118.1064453125 161.79379272460938Q8144.128112792969 133.2177734375 8182.323669433594 118.59823608398438Q8220.519226074219 103.97869873046875 8270.779968261719 103.97869873046875ZM9185.642028808594 0.0 8936.294250488281 686.2174072265625H9087.62109375L9243.229248046875 230.957763671875Q9247.229248046875 220.63165283203125 9251.555358886719 206.32720947265625Q9255.881469726562 192.02276611328125 9260.370635986328 178.72915649414062Q9264.859802246094 165.435546875 9268.185913085938 154.9136962890625H9273.512023925781Q9276.838134765625 164.32684326171875 9280.82730102539 177.06610107421875Q9284.816467285156 189.80535888671875 9289.19692993164 203.718505859375Q9293.577392578125 217.63165283203125 9297.577392578125 230.06646728515625L9452.402954101562 686.2174072265625H9597.294982910156L9348.055908203125 0.0ZM9961.112976074219 0.0V686.2174072265625H10502.635192871094V569.347412109375H10101.005004882812V408.3914794921875H10457.548156738281V292.28240966796875H10101.005004882812V116.8699951171875H10508.743896484375V0.0ZM11637.552612304688 0.0V686.2174072265625H11853.749084472656L11956.857421875 319.4359130859375Q11962.640014648438 300.19683837890625 11968.80307006836 274.6533203125Q11974.966125488281 249.10980224609375 11980.792236328125 224.80535888671875Q11986.618347167969 200.50091552734375 11990.053161621094 182.0877685546875H11998.053161621094Q12000.379272460938 197.84869384765625 12004.759735107422 220.77267456054688Q12009.140197753906 243.6966552734375 12014.91195678711 269.9032287597656Q12020.683715820312 296.10980224609375 12027.575012207031 320.32720947265625L12130.683349609375 686.2174072265625H12343.901489257812V0.0H12205.096496582031V336.23834228515625Q12205.096496582031 381.58612060546875 12206.04214477539 427.2056579589844Q12206.98779296875 472.8251953125 12208.379089355469 506.36871337890625Q12209.770385742188 539.9122314453125 12209.770385742188 547.9776000976562H12201.770385742188Q12199.661682128906 537.7818603515625 12191.93344116211 508.10797119140625Q12184.205200195312 478.43408203125 12175.531311035156 444.3580627441406Q12166.857421875 410.28204345703125 12159.966125488281 385.8255615234375L12049.575012207031 0.0H11924.683349609375L11814.183532714844 384.93426513671875Q11808.292236328125 405.8255615234375 11800.900939941406 434.99945068359375Q11793.509643554688 464.17333984375 11786.28140258789 494.738525390625Q11779.053161621094 525.3037109375 11773.270568847656 547.868896484375H11765.270568847656Q11766.270568847656 521.0863037109375 11767.270568847656 483.5319519042969Q11768.270568847656 445.97760009765625 11769.216217041016 407.0971374511719Q11770.161865234375 368.2166748046875 11770.161865234375 336.23834228515625V0.0ZM12772.349670410156 0.0V686.2174072265625H13313.871887207031V569.347412109375H12912.24169921875V408.3914794921875H13268.784851074219V292.28240966796875H12912.24169921875V116.8699951171875H13319.980590820312V0.0Z" /></g><g data-baseline="60" transform="translate(-1.1250000 60) scale(0.013327234574 -0.013327234574)"><path d="M85.1563720703125 0.0V686.0H183.5252685546875V0.0ZM354.1624755859375 0.0V686.0H449.44476318359375L778.2378540039062 238.5477294921875Q783.654052734375 232.13153076171875 791.4864501953125 220.59103393554688Q799.31884765625 209.050537109375 806.983642578125 197.3857421875Q814.6484375 185.720947265625 819.1456298828125 177.63995361328125H823.7294311523438Q823.7294311523438 193.30474853515625 823.7294311523438 208.3857421875Q823.7294311523438 223.46673583984375 823.7294311523438 238.5477294921875V686.0H919.1793212890625V0.0H829.4752197265625L496.3525390625 455.03045654296875Q488.76873779296875 465.7818603515625 475.5634460449219 485.5709533691406Q462.358154296875 505.36004638671875 454.1961669921875 517.3544311523438H449.61236572265625Q449.61236572265625 501.85723876953125 449.61236572265625 486.4843444824219Q449.61236572265625 471.1114501953125 449.61236572265625 455.03045654296875V0.0ZM1089.1685791015625 0.0V686.0H1347.1044311523438Q1454.4340209960938 686.0 1530.0988159179688 649.8323974609375Q1605.7636108398438 613.664794921875 1646.1798095703125 538.164794921875Q1686.5960083007812 462.664794921875 1686.5960083007812 343.0Q1686.5960083007812 224.75140380859375 1646.1798095703125 148.75140380859375Q1605.7636108398438 72.75140380859375 1530.0988159179688 36.375701904296875Q1454.4340209960938 0.0 1347.1044311523438 0.0ZM1187.5374755859375 84.77947998046875H1345.4396362304688Q1401.347412109375 84.77947998046875 1445.6308898925781 98.98757934570312Q1489.9143676757812 113.1956787109375 1520.9492492675781 142.98477172851562Q1551.984130859375 172.77386474609375 1568.313720703125 219.6844482421875Q1584.643310546875 266.59503173828125 1584.643310546875 331.58380126953125V352.1676025390625Q1584.643310546875 418.98876953125 1568.313720703125 466.1074523925781Q1551.984130859375 513.2261352539062 1521.1573486328125 543.0152282714844Q1490.33056640625 572.8043212890625 1446.0470886230469 587.0124206542969Q1401.7636108398438 601.2205200195312 1345.4396362304688 601.2205200195312H1187.5374755859375ZM1822.1746826171875 0.0V686.0H2350.9317016601562V601.2205200195312H1920.5435791015625V393.5140380859375H2306.9317016601562V308.73455810546875H1920.5435791015625V84.77947998046875H2356.9317016601562V0.0ZM2498.1807861328125 0.0V686.0H2837.6026000976562Q2909.4406127929688 686.0 2956.4434204101562 659.4161987304688Q3003.4462280273438 632.8323974609375 3026.989532470703 585.7052917480469Q3050.5328369140625 538.5781860351562 3050.5328369140625 475.98876953125Q3050.5328369140625 412.318359375 3024.5328369140625 363.7750549316406Q2998.5328369140625 315.23175048828125 2950.570526123047 288.14794921875Q2902.6082153320312 261.06414794921875 2836.01318359375 261.06414794921875H2596.5496826171875V0.0ZM2596.5496826171875 345.8436279296875H2830.348388671875Q2885.7589721679688 345.8436279296875 2918.461456298828 380.3380126953125Q2951.1639404296875 414.8323974609375 2951.1639404296875 475.1563720703125Q2951.1639404296875 515.1507568359375 2937.707244873047 543.1046447753906Q2924.2505493164062 571.0585327148438 2897.5047607421875 586.1395263671875Q2870.7589721679688 601.2205200195312 2830.348388671875 601.2205200195312H2596.5496826171875ZM3163.1868896484375 0.0V686.0H3691.9439086914062V601.2205200195312H3261.5557861328125V393.5140380859375H3647.9439086914062V308.73455810546875H3261.5557861328125V84.77947998046875H3697.9439086914062V0.0ZM3839.1929931640625 0.0V686.0H3934.4752807617188L4263.268371582031 238.5477294921875Q4268.6845703125 232.13153076171875 4276.5169677734375 220.59103393554688Q4284.349365234375 209.050537109375 4292.01416015625 197.3857421875Q4299.678955078125 185.720947265625 4304.1761474609375 177.63995361328125H4308.759948730469Q4308.759948730469 193.30474853515625 4308.759948730469 208.3857421875Q4308.759948730469 223.46673583984375 4308.759948730469 238.5477294921875V686.0H4404.2098388671875V0.0H4314.5057373046875L3981.383056640625 455.03045654296875Q3973.7992553710938 465.7818603515625 3960.593963623047 485.5709533691406Q3947.388671875 505.36004638671875 3939.2266845703125 517.3544311523438H3934.6428833007812Q3934.6428833007812 501.85723876953125 3934.6428833007812 486.4843444824219Q3934.6428833007812 471.1114501953125 3934.6428833007812 455.03045654296875V0.0ZM4574.1990966796875 0.0V686.0H4832.134948730469Q4939.464538574219 686.0 5015.129333496094 649.8323974609375Q5090.794128417969 613.664794921875 5131.2103271484375 538.164794921875Q5171.626525878906 462.664794921875 5171.626525878906 343.0Q5171.626525878906 224.75140380859375 5131.2103271484375 148.75140380859375Q5090.794128417969 72.75140380859375 5015.129333496094 36.375701904296875Q4939.464538574219 0.0 4832.134948730469 0.0ZM4672.5679931640625 84.77947998046875H4830.470153808594Q4886.3779296875 84.77947998046875 4930.661407470703 98.98757934570312Q4974.944885253906 113.1956787109375 5005.979766845703 142.98477172851562Q5037.0146484375 172.77386474609375 5053.34423828125 219.6844482421875Q5069.673828125 266.59503173828125 5069.673828125 331.58380126953125V352.1676025390625Q5069.673828125 418.98876953125 5053.34423828125 466.1074523925781Q5037.0146484375 513.2261352539062 5006.1878662109375 543.0152282714844Q4975.361083984375 572.8043212890625 4931.077606201172 587.0124206542969Q4886.794128417969 601.2205200195312 4830.470153808594 601.2205200195312H4672.5679931640625ZM5307.2052001953125 0.0V686.0H5835.962219238281V601.2205200195312H5405.5740966796875V393.5140380859375H5791.962219238281V308.73455810546875H5405.5740966796875V84.77947998046875H5841.962219238281V0.0ZM5983.2113037109375 0.0V686.0H6078.493591308594L6407.286682128906 238.5477294921875Q6412.702880859375 232.13153076171875 6420.5352783203125 220.59103393554688Q6428.36767578125 209.050537109375 6436.032470703125 197.3857421875Q6443.697265625 185.720947265625 6448.1944580078125 177.63995361328125H6452.778259277344Q6452.778259277344 193.30474853515625 6452.778259277344 208.3857421875Q6452.778259277344 223.46673583984375 6452.778259277344 238.5477294921875V686.0H6548.2281494140625V0.0H6458.5240478515625L6125.4013671875 455.03045654296875Q6117.817565917969 465.7818603515625 6104.612274169922 485.5709533691406Q6091.406982421875 505.36004638671875 6083.2449951171875 517.3544311523438H6078.661193847656Q6078.661193847656 501.85723876953125 6078.661193847656 486.4843444824219Q6078.661193847656 471.1114501953125 6078.661193847656 455.03045654296875V0.0ZM6886.2174072265625 0.0V600.63671875H6652.650451660156V686.0H7219.985656738281V600.63671875H6984.5863037109375V0.0ZM7533.235107421875 0.0V686.0H7872.656921386719Q7944.494934082031 686.0 7991.497741699219 659.4161987304688Q8038.500549316406 632.8323974609375 8062.043853759766 585.7052917480469Q8085.587158203125 538.5781860351562 8085.587158203125 475.98876953125Q8085.587158203125 412.318359375 8059.587158203125 363.7750549316406Q8033.587158203125 315.23175048828125 7985.624847412109 288.14794921875Q7937.662536621094 261.06414794921875 7871.0675048828125 261.06414794921875H7631.60400390625V0.0ZM7631.60400390625 345.8436279296875H7865.4027099609375Q7920.813293457031 345.8436279296875 7953.515777587891 380.3380126953125Q7986.21826171875 414.8323974609375 7986.21826171875 475.1563720703125Q7986.21826171875 515.1507568359375 7972.761566162109 543.1046447753906Q7959.304870605469 571.0585327148438 7932.55908203125 586.1395263671875Q7905.813293457031 601.2205200195312 7865.4027099609375 601.2205200195312H7631.60400390625ZM8198.2412109375 0.0V686.0H8296.610107421875V0.0ZM8635.247314453125 0.0V600.63671875H8401.680358886719V686.0H8969.015563964844V600.63671875H8733.6162109375V0.0ZM9344.929443359375 -12.0Q9239.929443359375 -12.0 9166.678039550781 26.24859619140625Q9093.426635742188 64.4971923828125 9055.175231933594 143.20529174804688Q9016.923828125 221.91339111328125 9016.923828125 343.0Q9016.923828125 521.9190063476562 9103.675231933594 609.9595031738281Q9190.426635742188 698.0 9345.761840820312 698.0Q9433.259033203125 698.0 9501.342834472656 669.4161987304688Q9569.426635742188 640.8323974609375 9608.469940185547 583.3728942871094Q9647.513244628906 525.9133911132812 9647.513244628906 437.994384765625H9547.392944335938Q9547.392944335938 497.1507568359375 9522.563354492188 536.0208435058594Q9497.733764648438 574.8909301757812 9452.450286865234 594.3476257324219Q9407.166809082031 613.8043212890625 9346.097045898438 613.8043212890625Q9274.351257324219 613.8043212890625 9223.108276367188 585.8476257324219Q9171.865295410156 557.8909301757812 9145.370910644531 500.06414794921875Q9118.876525878906 442.23736572265625 9118.876525878906 351.5028076171875V329.91900634765625Q9118.876525878906 240.681640625 9145.370910644531 183.687255859375Q9171.865295410156 126.69287109375 9222.816375732422 99.44427490234375Q9273.767456054688 72.1956787109375 9346.513244628906 72.1956787109375Q9408.918212890625 72.1956787109375 9454.78549194336 91.3604736328125Q9500.652770996094 110.5252685546875 9525.690460205078 149.39535522460938Q9550.728149414062 188.26544189453125 9550.728149414062 247.42181396484375H9647.513244628906Q9647.513244628906 158.67041015625 9607.929443359375 101.21090698242188Q9568.345642089844 43.75140380859375 9500.053741455078 15.875701904296875Q9431.761840820312 -12.0 9344.929443359375 -12.0ZM9779.259521484375 0.0V686.0H9877.62841796875V393.26544189453125H10245.907470703125V686.0H10344.2763671875V0.0H10245.907470703125V307.90216064453125H9877.62841796875V0.0ZM10946.472900390625 -12.0Q10870.218688964844 -12.0 10811.632080078125 11.5Q10753.045471191406 35.0 10719.918365478516 79.0Q10686.791259765625 123.0 10686.791259765625 184.0Q10686.791259765625 252.91900634765625 10722.16976928711 294.4595031738281Q10757.548278808594 336.0 10810.1376953125 352.0V356.0Q10764.548278808594 378.0 10733.461669921875 413.4566955566406Q10702.375061035156 448.91339111328125 10702.375061035156 510.0Q10702.375061035156 571.0 10734.002166748047 613.0Q10765.629272460938 655.0 10823.007781982422 676.5Q10880.386291503906 698.0 10956.640502929688 698.0Q11031.143310546875 698.0 11087.686614990234 675.0Q11144.229919433594 652.0 11176.60562133789 609.5Q11208.981323242188 567.0 11208.981323242188 510.0V492.07537841796875H11117.780029296875V503.4971923828125Q11116.947631835938 544.4049682617188 11095.869445800781 570.2750549316406Q11074.791259765625 596.1451416015625 11038.588775634766 608.5180358886719Q11002.386291503906 620.8909301757812 10955.056701660156 620.8909301757812Q10922.889099121094 620.8909301757812 10893.891906738281 614.3909301757812Q10864.894714355469 607.8909301757812 10842.940826416016 593.8504333496094Q10820.986938476562 579.8099365234375 10808.573547363281 557.4803466796875Q10796.16015625 535.1507568359375 10796.16015625 503.90777587890625Q10796.16015625 464.41619873046875 10815.781646728516 438.0461120605469Q10835.403137207031 411.676025390625 10867.397521972656 399.01123046875Q10899.391906738281 386.346435546875 10936.218688964844 386.346435546875H10998.640502929688V310.90216064453125H10938.802490234375Q10898.80810546875 310.90216064453125 10862.52182006836 300.73736572265625Q10826.235534667969 290.57257080078125 10803.905944824219 264.6186828613281Q10781.576354980469 238.664794921875 10781.576354980469 190.8380126953125Q10781.576354980469 146.346435546875 10802.905944824219 118.6844482421875Q10824.235534667969 91.0224609375 10862.938018798828 78.06576538085938Q10901.640502929688 65.10906982421875 10953.218688964844 65.10906982421875Q11008.877868652344 65.10906982421875 11045.247955322266 79.06576538085938Q11081.618041992188 93.0224609375 11099.699035644531 121.56015014648438Q11117.780029296875 150.09783935546875 11117.780029296875 191.75701904296875V386.346435546875H11294.738342285156V309.653564453125H11208.981323242188V194.75701904296875Q11208.981323242188 129.09222412109375 11179.313720703125 82.75701904296875Q11149.646118164062 36.42181396484375 11091.310913085938 12.210906982421875Q11032.975708007812 -12.0 10946.472900390625 -12.0ZM11794.294921875 0.0V600.63671875H11560.727966308594V686.0H12128.063171386719V600.63671875H11892.663818359375V0.0ZM12233.301025390625 0.0V686.0H12331.669921875V0.0ZM12502.30712890625 0.0V686.0H12654.866088867188L12806.566955566406 246.5645751953125Q12812.566955566406 228.64556884765625 12818.77505493164 206.97515869140625Q12824.983154296875 185.30474853515625 12830.483154296875 165.84243774414062Q12835.983154296875 146.380126953125 12838.983154296875 132.29351806640625H12845.734558105469Q12848.983154296875 146.8773193359375 12854.023651123047 166.79632568359375Q12859.064147949219 186.71533203125 12864.772247314453 208.0533447265625Q12870.480346679688 229.391357421875 12875.815551757812 247.14837646484375L13027.516418457031 686.0H13178.907775878906V0.0H13080.538879394531V396.52764892578125Q13080.538879394531 429.20928955078125 13081.330780029297 466.4691162109375Q13082.122680664062 503.72894287109375 13083.206481933594 534.64794921875Q13084.290283203125 565.5669555664062 13084.290283203125 578.2261352539062H13076.706481933594Q13073.457885742188 565.0641479492188 13066.49838256836 540.8909301757812Q13059.538879394531 516.7177124023438 13051.995574951172 490.4578857421875Q13044.452270507812 464.19805908203125 13037.868469238281 443.7762451171875L12881.583801269531 0.0H12796.128295898438L12639.843627929688 443.19244384765625Q12633.843627929688 461.279052734375 12627.176025390625 484.3279724121094Q12620.508422851562 507.37689208984375 12613.8408203125 532.1339111328125Q12607.173217773438 556.8909301757812 12601.589416503906 578.2261352539062H12594.005615234375Q12595.005615234375 554.971923828125 12595.589416503906 522.2582092285156Q12596.173217773438 489.54449462890625 12596.965118408203 456.2469787597656Q12597.757019042969 422.949462890625 12597.757019042969 396.52764892578125V0.0ZM13349.313232421875 0.0V686.0H13878.070251464844V601.2205200195312H13447.68212890625V393.5140380859375H13834.070251464844V308.73455810546875H13447.68212890625V84.77947998046875H13884.070251464844V0.0Z" /></g></g></svg>
