<svg xmlns="http://www.w3.org/2000/svg" width="192" height="64" viewBox="-4 0 192 64" role="img" aria-labelledby="title"><title id="title">TRIPLE OG. LOFI CASSETTE TAPE SIM. RUN THE TAPE. WARM FUZZY ENLIGHTENMENT</title><g fill="#f5f2ea"><g transform="translate(22.9106449106449 16.893680393680395) scale(0.02382802382802383 -0.02382802382802383)"><path d="M470 512V0H249V512H23V688H695V512ZM1296.0 288 1449.0 0H1201.0L1079.0 251H997.0V0H776.0V688H1197.0Q1271.0 688 1323.5 659.5Q1376.0 631 1402.5 582.5Q1429.0 534 1429.0 477Q1429.0 414 1395.0 363.0Q1361.0 312 1296.0 288ZM1142.0 531H997.0V404H1142.0Q1168.0 404 1186.0 422.5Q1204.0 441 1204.0 468Q1204.0 495 1186.0 513.0Q1168.0 531 1142.0 531ZM1544.0 0V688H1765.0V0ZM2509.0 462V449Q2509.0 385 2481.0 333.0Q2453.0 281 2403.0 251.5Q2353.0 222 2289.0 222H2124.0V0H1903.0V688H2289.0Q2353.0 688 2403.0 658.5Q2453.0 629 2481.0 577.5Q2509.0 526 2509.0 462ZM2124.0 383H2215.0Q2250.0 383 2267.5 401.0Q2285.0 419 2285.0 450V458Q2285.0 490 2267.5 507.5Q2250.0 525 2215.0 525H2124.0ZM2605.0 688H2826.0V176H3179.0V0H2605.0ZM3252.0 688H3847.0V523H3473.0V428H3793.0V270H3473.0V165H3854.0V0H3252.0ZM4981.0 344Q4981.0 170 4884.0 79.0Q4787.0 -12 4609.0 -12Q4431.0 -12 4334.5 78.5Q4238.0 169 4238.0 344Q4238.0 519 4334.5 609.5Q4431.0 700 4609.0 700Q4787.0 700 4884.0 609.0Q4981.0 518 4981.0 344ZM4464.0 376V312Q4464.0 239 4501.0 196.0Q4538.0 153 4609.0 153Q4680.0 153 4717.5 196.0Q4755.0 239 4755.0 312V376Q4755.0 449 4717.5 492.0Q4680.0 535 4609.0 535Q4538.0 535 4501.0 492.0Q4464.0 449 4464.0 376ZM5776.0 439H5565.0Q5565.0 482 5527.0 508.5Q5489.0 535 5435.0 535Q5357.0 535 5317.0 493.5Q5277.0 452 5277.0 376V312Q5277.0 236 5317.0 194.5Q5357.0 153 5435.0 153Q5489.0 153 5527.0 178.5Q5565.0 204 5565.0 244H5409.0V384H5776.0V0H5662.0L5640.0 68Q5546.0 -12 5394.0 -12Q5223.0 -12 5137.0 77.5Q5051.0 167 5051.0 344Q5051.0 519 5148.5 609.5Q5246.0 700 5426.0 700Q5525.0 700 5604.0 670.0Q5683.0 640 5729.5 581.5Q5776.0 523 5776.0 439Z" /></g><g data-baseline="34" transform="translate(-1.1250000 34) scale(0.013879518072 -0.013879518072)"><path d="M85.1563720703125 0.0V686.0H183.5252685546875V85.94708251953125H525.028076171875V0.0ZM942.9329833984375 -12.0Q836.3491821289062 -12.0 759.3896789550781 27.124298095703125Q682.43017578125 66.24859619140625 641.3463745117188 145.24859619140625Q600.2625732421875 224.24859619140625 600.2625732421875 343.0Q600.2625732421875 462.75140380859375 641.3463745117188 541.2514038085938Q682.43017578125 619.7514038085938 759.3896789550781 658.8757019042969Q836.3491821289062 698.0 942.9329833984375 698.0Q1050.5167846679688 698.0 1127.1843872070312 658.8757019042969Q1203.8519897460938 619.7514038085938 1244.935791015625 541.2514038085938Q1286.0195922851562 462.75140380859375 1286.0195922851562 343.0Q1286.0195922851562 224.24859619140625 1244.935791015625 145.24859619140625Q1203.8519897460938 66.24859619140625 1127.1843872070312 27.124298095703125Q1050.5167846679688 -12.0 942.9329833984375 -12.0ZM942.9329833984375 72.1956787109375Q999.094970703125 72.1956787109375 1043.7974548339844 87.61187744140625Q1088.4999389648438 103.028076171875 1119.8700256347656 135.0252685546875Q1151.2401123046875 167.0224609375 1167.9454040527344 215.93304443359375Q1184.6506958007812 264.8436279296875 1184.6506958007812 331.8323974609375V353.0Q1184.6506958007812 420.57257080078125 1167.9454040527344 469.7750549316406Q1151.2401123046875 518.9775390625 1119.8700256347656 550.9747314453125Q1088.4999389648438 582.971923828125 1043.7974548339844 598.3881225585938Q999.094970703125 613.8043212890625 942.9329833984375 613.8043212890625Q886.77099609375 613.8043212890625 842.276611328125 598.3881225585938Q797.7822265625 582.971923828125 766.4121398925781 550.9747314453125Q735.0420532226562 518.9775390625 718.628662109375 469.7750549316406Q702.2152709960938 420.57257080078125 702.2152709960938 353.0V331.8323974609375Q702.2152709960938 264.8436279296875 718.628662109375 215.93304443359375Q735.0420532226562 167.0224609375 766.4121398925781 135.0252685546875Q797.7822265625 103.028076171875 842.276611328125 87.61187744140625Q886.77099609375 72.1956787109375 942.9329833984375 72.1956787109375ZM1462.0279541015625 0.0V686.0H1948.7849731445312V601.2205200195312H1560.3968505859375V384.75701904296875H1913.201171875V300.39373779296875H1560.3968505859375V0.0ZM2114.4637451171875 0.0V686.0H2212.8326416015625V0.0ZM3002.403564453125 -12.0Q2897.403564453125 -12.0 2824.1521606445312 26.24859619140625Q2750.9007568359375 64.4971923828125 2712.6493530273438 143.20529174804688Q2674.39794921875 221.91339111328125 2674.39794921875 343.0Q2674.39794921875 521.9190063476562 2761.1493530273438 609.9595031738281Q2847.9007568359375 698.0 3003.2359619140625 698.0Q3090.733154296875 698.0 3158.8169555664062 669.4161987304688Q3226.9007568359375 640.8323974609375 3265.944061279297 583.3728942871094Q3304.9873657226562 525.9133911132812 3304.9873657226562 437.994384765625H3204.8670654296875Q3204.8670654296875 497.1507568359375 3180.0374755859375 536.0208435058594Q3155.2078857421875 574.8909301757812 3109.9244079589844 594.3476257324219Q3064.6409301757812 613.8043212890625 3003.5711669921875 613.8043212890625Q2931.8253784179688 613.8043212890625 2880.5823974609375 585.8476257324219Q2829.3394165039062 557.8909301757812 2802.8450317382812 500.06414794921875Q2776.3506469726562 442.23736572265625 2776.3506469726562 351.5028076171875V329.91900634765625Q2776.3506469726562 240.681640625 2802.8450317382812 183.687255859375Q2829.3394165039062 126.69287109375 2880.290496826172 99.44427490234375Q2931.2415771484375 72.1956787109375 3003.9873657226562 72.1956787109375Q3066.392333984375 72.1956787109375 3112.2596130371094 91.3604736328125Q3158.1268920898438 110.5252685546875 3183.164581298828 149.39535522460938Q3208.2022705078125 188.26544189453125 3208.2022705078125 247.42181396484375H3304.9873657226562Q3304.9873657226562 158.67041015625 3265.403564453125 101.21090698242188Q3225.8197631835938 43.75140380859375 3157.527862548828 15.875701904296875Q3089.2359619140625 -12.0 3002.403564453125 -12.0ZM3399.0879516601562 0.0 3669.833740234375 686.0H3798.0406494140625L4069.3702392578125 0.0H3962.9147338867188L3897.509765625 167.642333984375H3565.197021484375L3500.208251953125 0.0ZM3597.4568481445312 251.8380126953125H3864.6661376953125L3782.7639770507812 464.05853271484375Q3779.18017578125 473.22613525390625 3773.4720764160156 488.9342346191406Q3767.7639770507812 504.642333984375 3760.9315795898438 524.1828308105469Q3754.0991821289062 543.7233276367188 3747.0586853027344 563.971923828125Q3740.0181884765625 584.2205200195312 3734.185791015625 600.8853149414062H3727.9371948242188Q3721.52099609375 581.301513671875 3712.396697998047 555.301513671875Q3703.2723999023438 529.301513671875 3694.4400024414062 504.8448181152344Q3685.6076049804688 480.38812255859375 3679.3590087890625 464.05853271484375ZM4454.26953125 -12.0Q4398.1019287109375 -12.0 4346.310028076172 -0.956695556640625Q4294.518127441406 10.08660888671875 4254.518127441406 34.92181396484375Q4214.518127441406 59.75701904296875 4191.310028076172 98.8408203125Q4168.1019287109375 137.92462158203125 4168.1019287109375 194.42181396484375Q4168.1019287109375 200.005615234375 4168.393829345703 204.96511840820312Q4168.685729980469 209.92462158203125 4169.1019287109375 214.58941650390625H4268.4708251953125Q4268.054626464844 211.3408203125 4267.554626464844 205.0084228515625Q4267.054626464844 198.676025390625 4267.054626464844 193.8436279296875Q4267.054626464844 154.1844482421875 4290.6328125 126.93865966796875Q4314.210998535156 99.69287109375 4356.245880126953 85.94427490234375Q4398.28076171875 72.1956787109375 4451.858947753906 72.1956787109375Q4476.534973144531 72.1956787109375 4502.659271240234 75.36328125Q4528.7835693359375 78.5308837890625 4552.694152832031 86.0308837890625Q4576.604736328125 93.5308837890625 4595.472015380859 105.90377807617188Q4614.339294433594 118.27667236328125 4625.2498779296875 136.47915649414062Q4636.160461425781 154.681640625 4636.160461425781 180.08660888671875Q4636.160461425781 213.664794921875 4617.119964599609 235.78628540039062Q4598.0794677734375 257.90777587890625 4566.122772216797 272.57257080078125Q4534.166076660156 287.23736572265625 4493.793182373047 298.56976318359375Q4453.4202880859375 309.90216064453125 4410.631195068359 320.90216064453125Q4367.842102050781 331.90216064453125 4327.469207763672 346.56976318359375Q4287.0963134765625 361.23736572265625 4255.139617919922 382.40496826171875Q4223.182922363281 403.57257080078125 4204.142425537109 436.0320739746094Q4185.1019287109375 468.4915771484375 4185.1019287109375 514.6591796875Q4185.1019287109375 557.664794921875 4202.896636962891 592.0Q4220.691345214844 626.335205078125 4255.486053466797 649.835205078125Q4290.28076171875 673.335205078125 4340.905059814453 685.6676025390625Q4391.529357910156 698.0 4457.188537597656 698.0Q4510.93994140625 698.0 4557.775146484375 686.7080993652344Q4604.6103515625 675.4161987304688 4640.361755371094 651.7485961914062Q4676.1131591796875 628.0809936523438 4696.28076171875 591.6214904785156Q4716.4483642578125 555.1619873046875 4716.4483642578125 504.41058349609375V492.41058349609375H4618.663269042969V506.98876953125Q4618.663269042969 540.5669555664062 4598.041778564453 564.1046447753906Q4577.4202880859375 587.642333984375 4541.550201416016 600.7233276367188Q4505.680114746094 613.8043212890625 4459.518127441406 613.8043212890625Q4400.7835693359375 613.8043212890625 4361.916290283203 602.1828308105469Q4323.049011230469 590.5613403320312 4303.759918212891 569.8993530273438Q4284.4708251953125 549.2373657226562 4284.4708251953125 521.9077758789062Q4284.4708251953125 491.4971923828125 4303.511322021484 471.1676025390625Q4322.551818847656 450.8380126953125 4354.716613769531 437.1732177734375Q4386.881408691406 423.5084228515625 4427.254302978516 412.676025390625Q4467.627197265625 401.8436279296875 4510.208190917969 390.5517272949219Q4552.7891845703125 379.25982666015625 4593.162078857422 364.676025390625Q4633.534973144531 350.09222412109375 4665.699768066406 328.2165222167969Q4697.864562988281 306.3408203125 4716.905059814453 273.75701904296875Q4735.945556640625 241.1732177734375 4735.945556640625 194.75701904296875Q4735.945556640625 121.5028076171875 4699.694152832031 75.75140380859375Q4663.4427490234375 30 4600.023742675781 9.0Q4536.604736328125 -12.0 4454.26953125 -12.0ZM5166.705322265625 -12.0Q5110.5377197265625 -12.0 5058.745819091797 -0.956695556640625Q5006.953918457031 10.08660888671875 4966.953918457031 34.92181396484375Q4926.953918457031 59.75701904296875 4903.745819091797 98.8408203125Q4880.5377197265625 137.92462158203125 4880.5377197265625 194.42181396484375Q4880.5377197265625 200.005615234375 4880.829620361328 204.96511840820312Q4881.121520996094 209.92462158203125 4881.5377197265625 214.58941650390625H4980.9066162109375Q4980.490417480469 211.3408203125 4979.990417480469 205.0084228515625Q4979.490417480469 198.676025390625 4979.490417480469 193.8436279296875Q4979.490417480469 154.1844482421875 5003.068603515625 126.93865966796875Q5026.646789550781 99.69287109375 5068.681671142578 85.94427490234375Q5110.716552734375 72.1956787109375 5164.294738769531 72.1956787109375Q5188.970764160156 72.1956787109375 5215.095062255859 75.36328125Q5241.2193603515625 78.5308837890625 5265.129943847656 86.0308837890625Q5289.04052734375 93.5308837890625 5307.907806396484 105.90377807617188Q5326.775085449219 118.27667236328125 5337.6856689453125 136.47915649414062Q5348.596252441406 154.681640625 5348.596252441406 180.08660888671875Q5348.596252441406 213.664794921875 5329.555755615234 235.78628540039062Q5310.5152587890625 257.90777587890625 5278.558563232422 272.57257080078125Q5246.601867675781 287.23736572265625 5206.228973388672 298.56976318359375Q5165.8560791015625 309.90216064453125 5123.066986083984 320.90216064453125Q5080.277893066406 331.90216064453125 5039.904998779297 346.56976318359375Q4999.5321044921875 361.23736572265625 4967.575408935547 382.40496826171875Q4935.618713378906 403.57257080078125 4916.578216552734 436.0320739746094Q4897.5377197265625 468.4915771484375 4897.5377197265625 514.6591796875Q4897.5377197265625 557.664794921875 4915.332427978516 592.0Q4933.127136230469 626.335205078125 4967.921844482422 649.835205078125Q5002.716552734375 673.335205078125 5053.340850830078 685.6676025390625Q5103.965148925781 698.0 5169.624328613281 698.0Q5223.375732421875 698.0 5270.2109375 686.7080993652344Q5317.046142578125 675.4161987304688 5352.797546386719 651.7485961914062Q5388.5489501953125 628.0809936523438 5408.716552734375 591.6214904785156Q5428.8841552734375 555.1619873046875 5428.8841552734375 504.41058349609375V492.41058349609375H5331.099060058594V506.98876953125Q5331.099060058594 540.5669555664062 5310.477569580078 564.1046447753906Q5289.8560791015625 587.642333984375 5253.985992431641 600.7233276367188Q5218.115905761719 613.8043212890625 5171.953918457031 613.8043212890625Q5113.2193603515625 613.8043212890625 5074.352081298828 602.1828308105469Q5035.484802246094 590.5613403320312 5016.195709228516 569.8993530273438Q4996.9066162109375 549.2373657226562 4996.9066162109375 521.9077758789062Q4996.9066162109375 491.4971923828125 5015.947113037109 471.1676025390625Q5034.987609863281 450.8380126953125 5067.152404785156 437.1732177734375Q5099.317199707031 423.5084228515625 5139.690093994141 412.676025390625Q5180.06298828125 401.8436279296875 5222.643981933594 390.5517272949219Q5265.2249755859375 379.25982666015625 5305.597869873047 364.676025390625Q5345.970764160156 350.09222412109375 5378.135559082031 328.2165222167969Q5410.300354003906 306.3408203125 5429.340850830078 273.75701904296875Q5448.38134765625 241.1732177734375 5448.38134765625 194.75701904296875Q5448.38134765625 121.5028076171875 5412.129943847656 75.75140380859375Q5375.8785400390625 30 5312.459533691406 9.0Q5249.04052734375 -12.0 5166.705322265625 -12.0ZM5626.470703125 0.0V686.0H6155.227722167969V601.2205200195312H5724.839599609375V393.5140380859375H6111.227722167969V308.73455810546875H5724.839599609375V84.77947998046875H6161.227722167969V0.0ZM6510.906494140625 0.0V600.63671875H6277.339538574219V686.0H6844.674743652344V600.63671875H6609.275390625V0.0ZM7158.34228515625 0.0V600.63671875H6924.775329589844V686.0H7492.110534667969V600.63671875H7256.711181640625V0.0ZM7637.778076171875 0.0V686.0H8166.535095214844V601.2205200195312H7736.14697265625V393.5140380859375H8122.535095214844V308.73455810546875H7736.14697265625V84.77947998046875H8172.535095214844V0.0ZM8807.041870117188 0.0V600.63671875H8573.474914550781V686.0H9140.810119628906V600.63671875H8905.410766601562V0.0ZM9121.402282714844 0.0 9392.148071289062 686.0H9520.35498046875L9791.6845703125 0.0H9685.229064941406L9619.824096679688 167.642333984375H9287.511352539062L9222.522583007812 0.0ZM9319.771179199219 251.8380126953125H9586.98046875L9505.078308105469 464.05853271484375Q9501.494506835938 473.22613525390625 9495.786407470703 488.9342346191406Q9490.078308105469 504.642333984375 9483.245910644531 524.1828308105469Q9476.413513183594 543.7233276367188 9469.373016357422 563.971923828125Q9462.33251953125 584.2205200195312 9456.500122070312 600.8853149414062H9450.251525878906Q9443.835327148438 581.301513671875 9434.711029052734 555.301513671875Q9425.586730957031 529.301513671875 9416.754333496094 504.8448181152344Q9407.921936035156 480.38812255859375 9401.67333984375 464.05853271484375ZM9923.913452148438 0.0V686.0H10263.335266113281Q10335.173278808594 686.0 10382.176086425781 659.4161987304688Q10429.178894042969 632.8323974609375 10452.722198486328 585.7052917480469Q10476.265502929688 538.5781860351562 10476.265502929688 475.98876953125Q10476.265502929688 412.318359375 10450.265502929688 363.7750549316406Q10424.265502929688 315.23175048828125 10376.303192138672 288.14794921875Q10328.340881347656 261.06414794921875 10261.745849609375 261.06414794921875H10022.282348632812V0.0ZM10022.282348632812 345.8436279296875H10256.0810546875Q10311.491638183594 345.8436279296875 10344.194122314453 380.3380126953125Q10376.896606445312 414.8323974609375 10376.896606445312 475.1563720703125Q10376.896606445312 515.1507568359375 10363.439910888672 543.1046447753906Q10349.983215332031 571.0585327148438 10323.237426757812 586.1395263671875Q10296.491638183594 601.2205200195312 10256.0810546875 601.2205200195312H10022.282348632812ZM10629.349243164062 0.0V686.0H11158.106262207031V601.2205200195312H10727.718139648438V393.5140380859375H11114.106262207031V308.73455810546875H10727.718139648438V84.77947998046875H11164.106262207031V0.0ZM11883.283447265625 -12.0Q11827.115844726562 -12.0 11775.323944091797 -0.956695556640625Q11723.532043457031 10.08660888671875 11683.532043457031 34.92181396484375Q11643.532043457031 59.75701904296875 11620.323944091797 98.8408203125Q11597.115844726562 137.92462158203125 11597.115844726562 194.42181396484375Q11597.115844726562 200.005615234375 11597.407745361328 204.96511840820312Q11597.699645996094 209.92462158203125 11598.115844726562 214.58941650390625H11697.484741210938Q11697.068542480469 211.3408203125 11696.568542480469 205.0084228515625Q11696.068542480469 198.676025390625 11696.068542480469 193.8436279296875Q11696.068542480469 154.1844482421875 11719.646728515625 126.93865966796875Q11743.224914550781 99.69287109375 11785.259796142578 85.94427490234375Q11827.294677734375 72.1956787109375 11880.872863769531 72.1956787109375Q11905.548889160156 72.1956787109375 11931.67318725586 75.36328125Q11957.797485351562 78.5308837890625 11981.708068847656 86.0308837890625Q12005.61865234375 93.5308837890625 12024.485931396484 105.90377807617188Q12043.353210449219 118.27667236328125 12054.263793945312 136.47915649414062Q12065.174377441406 154.681640625 12065.174377441406 180.08660888671875Q12065.174377441406 213.664794921875 12046.133880615234 235.78628540039062Q12027.093383789062 257.90777587890625 11995.136688232422 272.57257080078125Q11963.179992675781 287.23736572265625 11922.807098388672 298.56976318359375Q11882.434204101562 309.90216064453125 11839.645111083984 320.90216064453125Q11796.856018066406 331.90216064453125 11756.483123779297 346.56976318359375Q11716.110229492188 361.23736572265625 11684.153533935547 382.40496826171875Q11652.196838378906 403.57257080078125 11633.156341552734 436.0320739746094Q11614.115844726562 468.4915771484375 11614.115844726562 514.6591796875Q11614.115844726562 557.664794921875 11631.910552978516 592.0Q11649.705261230469 626.335205078125 11684.499969482422 649.835205078125Q11719.294677734375 673.335205078125 11769.918975830078 685.6676025390625Q11820.543273925781 698.0 11886.202453613281 698.0Q11939.953857421875 698.0 11986.7890625 686.7080993652344Q12033.624267578125 675.4161987304688 12069.375671386719 651.7485961914062Q12105.127075195312 628.0809936523438 12125.294677734375 591.6214904785156Q12145.462280273438 555.1619873046875 12145.462280273438 504.41058349609375V492.41058349609375H12047.677185058594V506.98876953125Q12047.677185058594 540.5669555664062 12027.055694580078 564.1046447753906Q12006.434204101562 587.642333984375 11970.56411743164 600.7233276367188Q11934.694030761719 613.8043212890625 11888.532043457031 613.8043212890625Q11829.797485351562 613.8043212890625 11790.930206298828 602.1828308105469Q11752.062927246094 590.5613403320312 11732.773834228516 569.8993530273438Q11713.484741210938 549.2373657226562 11713.484741210938 521.9077758789062Q11713.484741210938 491.4971923828125 11732.52523803711 471.1676025390625Q11751.565734863281 450.8380126953125 11783.730529785156 437.1732177734375Q11815.895324707031 423.5084228515625 11856.26821899414 412.676025390625Q11896.64111328125 401.8436279296875 11939.222106933594 390.5517272949219Q11981.803100585938 379.25982666015625 12022.175994873047 364.676025390625Q12062.548889160156 350.09222412109375 12094.713684082031 328.2165222167969Q12126.878479003906 306.3408203125 12145.918975830078 273.75701904296875Q12164.95947265625 241.1732177734375 12164.95947265625 194.75701904296875Q12164.95947265625 121.5028076171875 12128.708068847656 75.75140380859375Q12092.456665039062 30 12029.037658691406 9.0Q11965.61865234375 -12.0 11883.283447265625 -12.0ZM12343.048828125 0.0V686.0H12441.417724609375V0.0ZM12652.484619140625 0.0V686.0H12805.043579101562L12956.744445800781 246.5645751953125Q12962.744445800781 228.64556884765625 12968.952545166016 206.97515869140625Q12975.16064453125 185.30474853515625 12980.66064453125 165.84243774414062Q12986.16064453125 146.380126953125 12989.16064453125 132.29351806640625H12995.912048339844Q12999.16064453125 146.8773193359375 13004.201141357422 166.79632568359375Q13009.241638183594 186.71533203125 13014.949737548828 208.0533447265625Q13020.657836914062 229.391357421875 13025.993041992188 247.14837646484375L13177.693908691406 686.0H13329.085266113281V0.0H13230.716369628906V396.52764892578125Q13230.716369628906 429.20928955078125 13231.508270263672 466.4691162109375Q13232.300170898438 503.72894287109375 13233.383972167969 534.64794921875Q13234.4677734375 565.5669555664062 13234.4677734375 578.2261352539062H13226.883972167969Q13223.635375976562 565.0641479492188 13216.675872802734 540.8909301757812Q13209.716369628906 516.7177124023438 13202.173065185547 490.4578857421875Q13194.629760742188 464.19805908203125 13188.045959472656 443.7762451171875L13031.761291503906 0.0H12946.305786132812L12790.021118164062 443.19244384765625Q12784.021118164062 461.279052734375 12777.353515625 484.3279724121094Q12770.685913085938 507.37689208984375 12764.018310546875 532.1339111328125Q12757.350708007812 556.8909301757812 12751.766906738281 578.2261352539062H12744.18310546875Q12745.18310546875 554.971923828125 12745.766906738281 522.2582092285156Q12746.350708007812 489.54449462890625 12747.142608642578 456.2469787597656Q12747.934509277344 422.949462890625 12747.934509277344 396.52764892578125V0.0Z" /></g><g data-baseline="47" transform="translate(-1.0000000 47) scale(0.013879518072 -0.013879518072)"><path d="M75.7825927734375 0.0V686.2174072265625H444.391845703125Q520.5005493164062 686.2174072265625 570.6636047363281 659.6738891601562Q620.82666015625 633.13037109375 645.9353637695312 584.9129638671875Q671.0440673828125 536.695556640625 671.0440673828125 472.45648193359375Q671.0440673828125 405.565185546875 640.9353637695312 354.065185546875Q610.82666015625 302.565185546875 553.3701782226562 276.02166748046875L694.6092529296875 0.0H541.086669921875L417.36944580078125 252.39111328125H215.67462158203125V0.0ZM215.67462158203125 366.174072265625H429.50018310546875Q476.89129638671875 366.174072265625 502.9129638671875 394.2500915527344Q528.9346313476562 422.32611083984375 528.9346313476562 471.4781494140625Q528.9346313476562 503.1737060546875 517.3694458007812 524.9671325683594Q505.80426025390625 546.7605590820312 483.7825927734375 558.4888000488281Q461.76092529296875 570.217041015625 429.50018310546875 570.217041015625H215.67462158203125ZM1559.998779296875 -12.0Q1468.0421142578125 -12.0 1401.7920227050781 17.380462646484375Q1335.5419311523438 46.76092529296875 1300.3353576660156 106.804443359375Q1265.1287841796875 166.84796142578125 1265.1287841796875 256.50018310546875V686.2174072265625H1405.0208129882812V260.3914794921875Q1405.0208129882812 184.0003662109375 1445.2707214355469 143.98953247070312Q1485.5206298828125 103.97869873046875 1559.8900756835938 103.97869873046875Q1634.259521484375 103.97869873046875 1675.455078125 143.98953247070312Q1716.650634765625 184.0003662109375 1716.650634765625 260.3914794921875V686.2174072265625H1856.5426635742188V256.50018310546875Q1856.5426635742188 166.84796142578125 1820.9447937011719 106.804443359375Q1785.346923828125 46.76092529296875 1719.0968322753906 17.380462646484375Q1652.8467407226562 -12.0 1559.998779296875 -12.0ZM2482.6053466796875 0.0V686.2174072265625H2613.5623779296875L2897.9747924804688 298.392578125Q2903.4096069335938 291.957763671875 2911.2792358398438 280.5337829589844Q2919.1488647460938 269.10980224609375 2926.1815490722656 258.0771179199219Q2933.2142333984375 247.04443359375 2935.866455078125 240.3922119140625L2940.866455078125 240.609619140625Q2940.7577514648438 256.1314697265625 2940.7577514648438 270.7076721191406Q2940.7577514648438 285.28387451171875 2940.7577514648438 298.392578125V686.2174072265625H3074.0192260742188V0.0H2944.0621948242188L2655.823486328125 393.54241943359375Q2646.8451538085938 406.41204833984375 2636.182098388672 423.8033447265625Q2625.51904296875 441.19464111328125 2620.7581176757812 449.06427001953125L2615.7581176757812 448.84686279296875Q2615.8668212890625 435.19464111328125 2615.8668212890625 421.0967712402344Q2615.8668212890625 406.9989013671875 2615.8668212890625 393.54241943359375V0.0ZM4978.309265136719 0.0V567.2603759765625H4758.54833984375V686.2174072265625H5338.744812011719V567.2603759765625H5118.2012939453125V0.0ZM5917.459716796875 0.0V686.2174072265625H6057.351745605469V410.2611083984375H6368.9815673828125V686.2174072265625H6508.873596191406V0.0H6368.9815673828125V291.3040771484375H6057.351745605469V0.0ZM7138.697204589844 0.0V686.2174072265625H7680.219421386719V569.347412109375H7278.5892333984375V408.3914794921875H7635.132385253906V292.28240966796875H7278.5892333984375V116.8699951171875H7686.328125V0.0ZM9568.075012207031 0.0V567.2603759765625H9348.314086914062V686.2174072265625H9928.510559082031V567.2603759765625H9707.967041015625V0.0ZM10352.986389160156 0.0 10618.247131347656 686.2174072265625H10792.356567382812L11058.508605957031 0.0H10907.399169921875L10855.225463867188 140.67352294921875H10549.160827636719L10496.987121582031 0.0ZM10590.704345703125 255.45648193359375H10812.899353027344L10747.812683105469 433.19500732421875Q10743.812683105469 443.41241455078125 10738.36703491211 459.0754699707031Q10732.92138671875 474.738525390625 10727.030090332031 493.2928771972656Q10721.138793945312 511.84722900390625 10715.247497558594 530.7928771972656Q10709.356201171875 549.738525390625 10704.464904785156 564.6298217773438H10699.138793945312Q10693.356201171875 544.8472290039062 10685.073608398438 519.17333984375Q10676.791015625 493.49945068359375 10668.899719238281 470.3363952636719Q10661.008422851562 447.17333984375 10655.791015625 433.19500732421875ZM11618.136840820312 0.0V686.2174072265625H11968.87646484375Q12043.680725097656 686.2174072265625 12093.180725097656 658.9456481933594Q12142.680725097656 631.6738891601562 12168.0068359375 582.3477783203125Q12193.332946777344 533.0216674804688 12193.332946777344 464.9129638671875Q12193.332946777344 397.4781494140625 12167.06118774414 347.2063903808594Q12140.789428710938 296.93463134765625 12089.5068359375 269.2715759277344Q12038.224243164062 241.6085205078125 11962.637390136719 241.6085205078125H11758.028869628906V0.0ZM11758.028869628906 358.043701171875H11951.028137207031Q11999.397583007812 358.043701171875 12025.810546875 386.2936096191406Q12052.223510742188 414.54351806640625 12052.223510742188 464.695556640625Q12052.223510742188 498.49981689453125 12040.712677001953 521.5758361816406Q12029.201843261719 544.65185546875 12007.017120361328 557.1083374023438Q11984.832397460938 569.5648193359375 11951.028137207031 569.5648193359375H11758.028869628906ZM12772.374328613281 0.0V686.2174072265625H13313.896545410156V569.347412109375H12912.266357421875V408.3914794921875H13268.809509277344V292.28240966796875H12912.266357421875V116.8699951171875H13320.005249023438V0.0Z" /></g><g data-baseline="60" transform="translate(-0.1250000 60) scale(0.011947748890 -0.011947748890)"><path d="M202.24298095703125 0.0 12.08099365234375 686.0H116.78509521484375L237.77386474609375 225.43865966796875Q241.1900634765625 213.77386474609375 245.64675903320312 193.77667236328125Q250.10345458984375 173.77947998046875 254.76824951171875 152.07418823242188Q259.43304443359375 130.368896484375 262.681640625 113.28790283203125H269.346435546875Q272.1788330078125 126.5364990234375 274.7193298339844 142.40939331054688Q277.25982666015625 158.28228759765625 280.3841247558594 174.15518188476562Q283.5084228515625 190.028076171875 286.3408203125 203.60906982421875Q289.1732177734375 217.1900634765625 291.005615234375 225.43865966796875L403.1619873046875 686.0H530.6231079101562L643.1956787109375 225.43865966796875Q646.6118774414062 213.77386474609375 650.8604736328125 193.77667236328125Q655.1090698242188 173.77947998046875 659.5657653808594 152.07418823242188Q664.0224609375 130.368896484375 666.8548583984375 113.28790283203125H673.5196533203125Q676.35205078125 125.95269775390625 679.6844482421875 141.53369140625Q683.016845703125 157.11468505859375 686.5573425292969 172.6956787109375Q690.0978393554688 188.27667236328125 693.5140380859375 202.14956665039062Q696.9302368164062 216.0224609375 699.346435546875 225.43865966796875L820.7514038085938 686.0H914.4498901367188L723.7041015625 0.0H605.9190063476562L488.25982666015625 464.1507568359375Q484.8436279296875 478.983154296875 480.7193298339844 499.56414794921875Q476.59503173828125 520.1451416015625 472.846435546875 541.5585327148438Q469.09783935546875 562.971923828125 466.26544189453125 579.4691162109375H460.60064697265625Q458.35205078125 562.8043212890625 454.60345458984375 540.80712890625Q450.8548583984375 518.8099365234375 446.60626220703125 498.312744140625Q442.357666015625 477.8155517578125 438.94146728515625 464.1507568359375L323.5308837890625 0.0ZM905.0870971679688 0.0 1175.8328857421875 686.0H1304.039794921875L1575.369384765625 0.0H1468.9138793945312L1403.5089111328125 167.642333984375H1071.1961669921875L1006.2073974609375 0.0ZM1103.4559936523438 251.8380126953125H1370.665283203125L1288.7631225585938 464.05853271484375Q1285.1793212890625 473.22613525390625 1279.4712219238281 488.9342346191406Q1273.7631225585938 504.642333984375 1266.9307250976562 524.1828308105469Q1260.0983276367188 543.7233276367188 1253.0578308105469 563.971923828125Q1246.017333984375 584.2205200195312 1240.1849365234375 600.8853149414062H1233.9363403320312Q1227.5201416015625 581.301513671875 1218.3958435058594 555.301513671875Q1209.2715454101562 529.301513671875 1200.4391479492188 504.8448181152344Q1191.6067504882812 480.38812255859375 1185.358154296875 464.05853271484375ZM1667.1685791015625 0.0V686.0H2027.7523803710938Q2098.7579956054688 686.0 2145.4284057617188 660.4161987304688Q2192.0988159179688 634.8323974609375 2215.4340209960938 589.32958984375Q2238.7692260742188 543.8267822265625 2238.7692260742188 483.8211669921875Q2238.7692260742188 413.4915771484375 2206.688232421875 362.40777587890625Q2174.6072387695312 311.323974609375 2118.688232421875 288.653564453125L2262.7692260742188 0.0H2154.8975219726562L2022.2383422851562 271.64794921875H1765.5374755859375V0.0ZM1765.5374755859375 355.25982666015625H2018.5847778320312Q2075.66015625 355.25982666015625 2107.4464416503906 389.67041015625Q2139.2327270507812 424.08099365234375 2139.2327270507812 484.23736572265625Q2139.2327270507812 521.3993530273438 2125.5679321289062 547.2289428710938Q2111.9031372070312 573.0585327148438 2085.1573486328125 587.1395263671875Q2058.4115600585938 601.2205200195312 2018.5847778320312 601.2205200195312H1765.5374755859375ZM2393.1746826171875 0.0V686.0H2545.733642578125L2697.4345092773438 246.5645751953125Q2703.4345092773438 228.64556884765625 2709.642608642578 206.97515869140625Q2715.8507080078125 185.30474853515625 2721.3507080078125 165.84243774414062Q2726.8507080078125 146.380126953125 2729.8507080078125 132.29351806640625H2736.6021118164062Q2739.8507080078125 146.8773193359375 2744.8912048339844 166.79632568359375Q2749.9317016601562 186.71533203125 2755.6398010253906 208.0533447265625Q2761.347900390625 229.391357421875 2766.68310546875 247.14837646484375L2918.3839721679688 686.0H3069.7753295898438V0.0H2971.4064331054688V396.52764892578125Q2971.4064331054688 429.20928955078125 2972.1983337402344 466.4691162109375Q2972.990234375 503.72894287109375 2974.0740356445312 534.64794921875Q2975.1578369140625 565.5669555664062 2975.1578369140625 578.2261352539062H2967.5740356445312Q2964.325439453125 565.0641479492188 2957.365936279297 540.8909301757812Q2950.4064331054688 516.7177124023438 2942.8631286621094 490.4578857421875Q2935.31982421875 464.19805908203125 2928.7360229492188 443.7762451171875L2772.4513549804688 0.0H2686.995849609375L2530.711181640625 443.19244384765625Q2524.711181640625 461.279052734375 2518.0435791015625 484.3279724121094Q2511.3759765625 507.37689208984375 2504.7083740234375 532.1339111328125Q2498.040771484375 556.8909301757812 2492.4569702148438 578.2261352539062H2484.8731689453125Q2485.8731689453125 554.971923828125 2486.4569702148438 522.2582092285156Q2487.040771484375 489.54449462890625 2487.8326721191406 456.2469787597656Q2488.6245727539062 422.949462890625 2488.6245727539062 396.52764892578125V0.0ZM3448.1923828125 0.0V686.0H3934.9494018554688V601.2205200195312H3546.561279296875V384.75701904296875H3899.3656005859375V300.39373779296875H3546.561279296875V0.0ZM4338.539306640625 -12.0Q4251.0364990234375 -12.0 4188.117492675781 16.1676025390625Q4125.198486328125 44.335205078125 4091.5308837890625 104.6676025390625Q4057.86328125 165.0 4057.86328125 258.994384765625V686.0H4156.648376464844V250.5084228515625Q4156.648376464844 161.93585205078125 4204.391357421875 117.27386474609375Q4252.134338378906 72.61187744140625 4338.539306640625 72.61187744140625Q4426.19287109375 72.61187744140625 4475.560150146484 117.27386474609375Q4524.927429199219 161.93585205078125 4524.927429199219 250.5084228515625V686.0H4622.880126953125V258.994384765625Q4622.880126953125 165.0 4588.7125244140625 104.6676025390625Q4554.544921875 44.335205078125 4491.001617431641 16.1676025390625Q4427.458312988281 -12.0 4338.539306640625 -12.0ZM4737.961608886719 0.0V50.346435546875L5149.3272705078125 601.2205200195312H4763.961608886719V686.0H5295.296813964844V635.9021606445312L4882.682556152344 84.77947998046875H5304.296813964844V0.0ZM5372.967712402344 0.0V50.346435546875L5784.3333740234375 601.2205200195312H5398.967712402344V686.0H5930.302917480469V635.9021606445312L5517.688659667969 84.77947998046875H5939.302917480469V0.0ZM6255.471008300781 0.0V283.994384765625L5986.0604248046875 686H6098.6025390625L6305.4068603515625 371.8604736328125H6309.990661621094L6515.211181640625 686.0H6623.499084472656L6354.256103515625 283.994384765625V0.0ZM6880.2344970703125 0.0V686.0H7408.991516113281V601.2205200195312H6978.6033935546875V393.5140380859375H7364.991516113281V308.73455810546875H6978.6033935546875V84.77947998046875H7414.991516113281V0.0ZM7556.2406005859375 0.0V686.0H7651.522888183594L7980.315979003906 238.5477294921875Q7985.732177734375 232.13153076171875 7993.5645751953125 220.59103393554688Q8001.39697265625 209.050537109375 8009.061767578125 197.3857421875Q8016.7265625 185.720947265625 8021.2237548828125 177.63995361328125H8025.807556152344Q8025.807556152344 193.30474853515625 8025.807556152344 208.3857421875Q8025.807556152344 223.46673583984375 8025.807556152344 238.5477294921875V686.0H8121.2574462890625V0.0H8031.5533447265625L7698.4306640625 455.03045654296875Q7690.846862792969 465.7818603515625 7677.641571044922 485.5709533691406Q7664.436279296875 505.36004638671875 7656.2742919921875 517.3544311523438H7651.690490722656Q7651.690490722656 501.85723876953125 7651.690490722656 486.4843444824219Q7651.690490722656 471.1114501953125 7651.690490722656 455.03045654296875V0.0ZM8291.246704101562 0.0V686.0H8389.615600585938V85.94708251953125H8731.118408203125V0.0ZM8830.252807617188 0.0V686.0H8928.621704101562V0.0ZM9408.345520019531 -12.0Q9243.1025390625 -12 9156.351135253906 74.74859619140625Q9069.599731445312 161.4971923828125 9069.599731445312 343.0Q9069.599731445312 461.5028076171875 9109.851135253906 540.2109069824219Q9150.1025390625 618.9190063476562 9227.978240966797 658.4595031738281Q9305.853942871094 698.0 9418.351135253906 698.0Q9487.264526367188 698.0 9544.43212890625 682.7919006347656Q9601.599731445312 667.5838012695312 9643.6025390625 637.0838012695312Q9685.605346679688 606.5838012695312 9708.31625366211 560.5838012695312Q9731.027160644531 514.5838012695312 9731.027160644531 452.0H9630.7392578125Q9630.7392578125 494.98876953125 9614.574462890625 525.6912536621094Q9598.40966796875 556.3937377929688 9569.580078125 576.1828308105469Q9540.75048828125 595.971923828125 9502.339904785156 604.8881225585938Q9463.929321289062 613.8043212890625 9419.853942871094 613.8043212890625Q9360.691955566406 613.8043212890625 9314.405670166016 598.6800231933594Q9268.119384765625 583.5557250976562 9236.249298095703 551.5585327148438Q9204.379211425781 519.5613403320312 9187.9658203125 470.3588562011719Q9171.552429199219 421.1563720703125 9171.552429199219 353.0V332.0Q9171.552429199219 239.76263427734375 9199.33871459961 182.35205078125Q9227.125 124.94146728515625 9280.492279052734 98.56857299804688Q9333.859558105469 72.1956787109375 9409.518737792969 72.1956787109375Q9484.75048828125 72.1956787109375 9534.03677368164 93.5252685546875Q9583.323059082031 114.8548583984375 9607.990661621094 158.09503173828125Q9632.658264160156 201.335205078125 9632.658264160156 266.318359375V278.312744140625H9392.848327636719V361.3408203125H9731.443359375V0.0H9658.004699707031L9647.837097167969 85.57257080078125Q9620.75048828125 51.41058349609375 9583.837097167969 29.82958984375Q9546.923706054688 8.24859619140625 9502.802215576172 -1.875701904296875Q9458.680725097656 -12.0 9408.345520019531 -12.0ZM9895.265014648438 0.0V686.0H9993.633911132812V393.26544189453125H10361.912963867188V686.0H10460.281860351562V0.0H10361.912963867188V307.90216064453125H9993.633911132812V0.0ZM10798.271118164062 0.0V600.63671875H10564.704162597656V686.0H11132.039367675781V600.63671875H10896.640014648438V0.0ZM11237.277221679688 0.0V686.0H11766.034240722656V601.2205200195312H11335.646118164062V393.5140380859375H11722.034240722656V308.73455810546875H11335.646118164062V84.77947998046875H11772.034240722656V0.0ZM11913.283325195312 0.0V686.0H12008.565612792969L12337.358703613281 238.5477294921875Q12342.77490234375 232.13153076171875 12350.607299804688 220.59103393554688Q12358.439697265625 209.050537109375 12366.1044921875 197.3857421875Q12373.769287109375 185.720947265625 12378.266479492188 177.63995361328125H12382.850280761719Q12382.850280761719 193.30474853515625 12382.850280761719 208.3857421875Q12382.850280761719 223.46673583984375 12382.850280761719 238.5477294921875V686.0H12478.300170898438V0.0H12388.596069335938L12055.473388671875 455.03045654296875Q12047.889587402344 465.7818603515625 12034.684295654297 485.5709533691406Q12021.47900390625 505.36004638671875 12013.317016601562 517.3544311523438H12008.733215332031Q12008.733215332031 501.85723876953125 12008.733215332031 486.4843444824219Q12008.733215332031 471.1114501953125 12008.733215332031 455.03045654296875V0.0ZM12648.289428710938 0.0V686.0H12800.848388671875L12952.549255371094 246.5645751953125Q12958.549255371094 228.64556884765625 12964.757354736328 206.97515869140625Q12970.965454101562 185.30474853515625 12976.465454101562 165.84243774414062Q12981.965454101562 146.380126953125 12984.965454101562 132.29351806640625H12991.716857910156Q12994.965454101562 146.8773193359375 13000.005950927734 166.79632568359375Q13005.046447753906 186.71533203125 13010.75454711914 208.0533447265625Q13016.462646484375 229.391357421875 13021.7978515625 247.14837646484375L13173.498718261719 686.0H13324.890075683594V0.0H13226.521179199219V396.52764892578125Q13226.521179199219 429.20928955078125 13227.313079833984 466.4691162109375Q13228.10498046875 503.72894287109375 13229.188781738281 534.64794921875Q13230.272583007812 565.5669555664062 13230.272583007812 578.2261352539062H13222.688781738281Q13219.440185546875 565.0641479492188 13212.480682373047 540.8909301757812Q13205.521179199219 516.7177124023438 13197.97787475586 490.4578857421875Q13190.4345703125 464.19805908203125 13183.850769042969 443.7762451171875L13027.566101074219 0.0H12942.110595703125L12785.825927734375 443.19244384765625Q12779.825927734375 461.279052734375 12773.158325195312 484.3279724121094Q12766.49072265625 507.37689208984375 12759.823120117188 532.1339111328125Q12753.155517578125 556.8909301757812 12747.571716308594 578.2261352539062H12739.987915039062Q12740.987915039062 554.971923828125 12741.571716308594 522.2582092285156Q12742.155517578125 489.54449462890625 12742.94741821289 456.2469787597656Q12743.739318847656 422.949462890625 12743.739318847656 396.52764892578125V0.0ZM13495.295532226562 0.0V686.0H14024.052551269531V601.2205200195312H13593.664428710938V393.5140380859375H13980.052551269531V308.73455810546875H13593.664428710938V84.77947998046875H14030.052551269531V0.0ZM14171.301635742188 0.0V686.0H14266.583923339844L14595.377014160156 238.5477294921875Q14600.793212890625 232.13153076171875 14608.625610351562 220.59103393554688Q14616.4580078125 209.050537109375 14624.122802734375 197.3857421875Q14631.78759765625 185.720947265625 14636.284790039062 177.63995361328125H14640.868591308594Q14640.868591308594 193.30474853515625 14640.868591308594 208.3857421875Q14640.868591308594 223.46673583984375 14640.868591308594 238.5477294921875V686.0H14736.318481445312V0.0H14646.614379882812L14313.49169921875 455.03045654296875Q14305.907897949219 465.7818603515625 14292.702606201172 485.5709533691406Q14279.497314453125 505.36004638671875 14271.335327148438 517.3544311523438H14266.751525878906Q14266.751525878906 501.85723876953125 14266.751525878906 486.4843444824219Q14266.751525878906 471.1114501953125 14266.751525878906 455.03045654296875V0.0ZM15074.307739257812 0.0V600.63671875H14840.740783691406V686.0H15408.075988769531V600.63671875H15172.676635742188V0.0Z" /></g></g></svg>
